<svg width="20" height="20" viewBox="0 0 20 20" fill="none"
  xmlns="http://www.w3.org/2000/svg">
  <path fill-rule="evenodd" clip-rule="evenodd" d="M6.07642 16.6678C4.93837 16.6678 4.0153 15.7448 4.0153 14.6067C4.0153 13.4687 4.93837 12.5456 6.07642 12.5456C7.21446 12.5456 8.13753 13.4687 8.13753 14.6067C8.13753 15.7448 7.21446 16.6678 6.07642 16.6678Z" stroke="#20202D" stroke-width="1.5" stroke-linecap="round" stroke-linejoin="round"/>
  <path fill-rule="evenodd" clip-rule="evenodd" d="M13.9247 12.0063C12.7867 12.0063 11.8636 11.0833 11.8636 9.94526C11.8636 8.80717 12.7867 7.88412 13.9247 7.88412C15.0627 7.88412 15.9858 8.80717 15.9858 9.94526C15.9858 11.0833 15.0627 12.0063 13.9247 12.0063Z" stroke="#20202D" stroke-width="1.5" stroke-linecap="round" stroke-linejoin="round"/>
  <path d="M13.9403 12.0052V12.9793C13.9403 13.9032 13.1918 14.6517 12.2681 14.6517H8.13802" stroke="#20202D" stroke-width="1.5" stroke-linecap="round" stroke-linejoin="round"/>
  <path fill-rule="evenodd" clip-rule="evenodd" d="M6.07642 7.45554C4.93837 7.45554 4.0153 6.53247 4.0153 5.39443C4.0153 4.25638 4.93837 3.33331 6.07642 3.33331C7.21446 3.33331 8.13753 4.25638 8.13753 5.39443C8.13753 6.53247 7.21446 7.45554 6.07642 7.45554Z" stroke="#20202D" stroke-width="1.5" stroke-linecap="round" stroke-linejoin="round"/>
  <path d="M6.07585 7.45444V12.5433" stroke="#20202D" stroke-width="1.5" stroke-linecap="round" stroke-linejoin="round"/>
</svg>
