<svg width="32" height="32" viewBox="0 0 32 32" fill="none"
  xmlns="http://www.w3.org/2000/svg">
  <path fill-rule="evenodd" clip-rule="evenodd" d="M23.3389 12.353L22.8202 11.4529C22.3814 10.6913 21.4089 10.4286 20.6463 10.8656C20.2832 11.0794 19.85 11.1401 19.4422 11.0342C19.0344 10.9283 18.6855 10.6646 18.4723 10.3011C18.3352 10.0701 18.2616 9.80698 18.2588 9.53835C18.2711 9.10766 18.1087 8.69031 17.8083 8.38137C17.508 8.07243 17.0954 7.8982 16.6646 7.89838H15.6196C15.1975 7.89838 14.7927 8.06658 14.495 8.36577C14.1972 8.66496 14.031 9.07047 14.033 9.49258C14.0205 10.3641 13.3104 11.064 12.4388 11.0639C12.1702 11.0611 11.907 10.9874 11.676 10.8503C10.9134 10.4133 9.94091 10.6761 9.5021 11.4377L8.94527 12.353C8.50699 13.1136 8.76615 14.0855 9.52498 14.5269C10.0182 14.8117 10.3221 15.338 10.3221 15.9075C10.3221 16.4771 10.0182 17.0034 9.52498 17.2882C8.76711 17.7266 8.50767 18.6961 8.94527 19.4544L9.47158 20.3621C9.67719 20.7331 10.0221 21.0069 10.4301 21.1228C10.8381 21.2388 11.2755 21.1874 11.6455 20.98C12.0092 20.7678 12.4426 20.7096 12.8494 20.8185C13.2562 20.9273 13.6027 21.1942 13.8118 21.5597C13.9489 21.7907 14.0226 22.0539 14.0254 22.3225C14.0254 23.2029 14.7391 23.9167 15.6196 23.9167H16.6646C17.542 23.9167 18.2546 23.2076 18.2588 22.3301C18.2567 21.9067 18.424 21.5 18.7234 21.2006C19.0229 20.9012 19.4295 20.7339 19.853 20.7359C20.121 20.7431 20.383 20.8165 20.6157 20.9495C21.3764 21.3878 22.3482 21.1286 22.7897 20.3698L23.3389 19.4544C23.5514 19.0896 23.6098 18.655 23.501 18.247C23.3922 17.8389 23.1252 17.4911 22.7592 17.2805C22.3931 17.0699 22.1261 16.7221 22.0173 16.3141C21.9085 15.9061 21.9669 15.4715 22.1794 15.1066C22.3177 14.8653 22.5178 14.6651 22.7592 14.5269C23.5134 14.0857 23.772 13.1196 23.3389 12.3606V12.353Z" stroke="#232739" stroke-width="1.5" stroke-linecap="round" stroke-linejoin="round"/>
  <path d="M16.1459 18.1043C17.3592 18.1043 18.3427 17.1208 18.3427 15.9075C18.3427 14.6943 17.3592 13.7107 16.1459 13.7107C14.9326 13.7107 13.9491 14.6943 13.9491 15.9075C13.9491 17.1208 14.9326 18.1043 16.1459 18.1043Z" stroke="#232739" stroke-width="1.5" stroke-linecap="round" stroke-linejoin="round"/>
</svg>
