<svg width="20" height="20" viewBox="0 0 20 20" fill="none"
  xmlns="http://www.w3.org/2000/svg">
  <path fill-rule="evenodd" clip-rule="evenodd" d="M3.05083 11.2448C2.36413 10.5581 2.36413 9.4445 3.05083 8.75783C3.73754 8.07031 4.85112 8.07031 5.53863 8.75783C6.22533 9.4445 6.22533 10.5581 5.53863 11.2448C4.85112 11.9315 3.73754 11.9315 3.05083 11.2448Z" stroke="#20202D" stroke-opacity="0.7" stroke-width="1.5" stroke-linecap="round" stroke-linejoin="round"/>
  <path fill-rule="evenodd" clip-rule="evenodd" d="M14.462 11.2448C13.7753 10.5581 13.7753 9.4445 14.462 8.75783C15.1487 8.07031 16.2622 8.07031 16.9489 8.75783C17.6365 9.4445 17.6365 10.5581 16.9489 11.2448C16.2622 11.9315 15.1487 11.9315 14.462 11.2448Z" stroke="#20202D" stroke-opacity="0.7" stroke-width="1.5" stroke-linecap="round" stroke-linejoin="round"/>
  <path fill-rule="evenodd" clip-rule="evenodd" d="M11.8062 13.1406C10.8088 12.1432 9.19167 12.1432 8.19432 13.1406C7.19695 14.138 7.19695 15.7551 8.19432 16.7525C9.19167 17.7498 10.8088 17.7498 11.8062 16.7525C12.8036 15.7551 12.8036 14.138 11.8062 13.1406Z" stroke="#20202D" stroke-opacity="0.7" stroke-width="1.5" stroke-linecap="round" stroke-linejoin="round"/>
  <path fill-rule="evenodd" clip-rule="evenodd" d="M8.19432 6.85988C9.19167 7.85726 10.8088 7.85726 11.8062 6.85988C12.8036 5.86251 12.8036 4.24541 11.8062 3.24803C10.8088 2.25066 9.19167 2.25066 8.19432 3.24803C7.19695 4.24541 7.19695 5.86251 8.19432 6.85988Z" stroke="#20202D" stroke-opacity="0.7" stroke-width="1.5" stroke-linecap="round" stroke-linejoin="round"/>
</svg>
