<svg width="20" height="20" viewBox="0 0 20 20" fill="none"
  xmlns="http://www.w3.org/2000/svg">
  <path fill-rule="evenodd" clip-rule="evenodd" d="M3.34818 12.2144C5.00759 13.8738 7.43593 14.2914 9.48543 13.4723L12.7872 16.7748C13.6436 17.6304 15.0536 17.7534 15.9497 16.9392C16.9032 16.073 16.9235 14.6031 16.0298 13.7086L12.6399 10.3187C13.4639 8.26347 13.0462 5.83513 11.3868 4.17576C9.72176 2.51073 7.28776 2.09871 5.23826 2.9284L8.07051 5.76066C8.32635 6.01644 8.43801 6.38313 8.36676 6.73847L8.09968 8.08053C8.01385 8.51034 7.6771 8.84626 7.24735 8.93126L5.9101 9.19593C5.5556 9.26559 5.18968 9.15384 4.93393 8.89893L2.10085 6.06582C1.26551 8.10968 1.68318 10.5493 3.34818 12.2144Z" stroke="#20202D" stroke-width="1.5" stroke-linecap="round" stroke-linejoin="round"/>
</svg>
