<svg width="32" height="32" viewBox="0 0 32 32" fill="none"
  xmlns="http://www.w3.org/2000/svg">
  <path d="M19.4235 19.8384L16.7794 25.5035C16.4704 26.1655 15.5294 26.1655 15.2204 25.5035L12.5775 19.8384C12.4915 19.6555 12.3445 19.5084 12.1615 19.4235L6.4965 16.7794C5.8345 16.4704 5.8345 15.5294 6.4965 15.2204L12.1615 12.5765C12.3445 12.4915 12.4915 12.3445 12.5775 12.1615L15.2204 6.4965C15.5294 5.8345 16.4704 5.8345 16.7794 6.4965L19.4235 12.1615C19.5084 12.3445 19.6555 12.4915 19.8395 12.5765L25.5035 15.2204C26.1655 15.5294 26.1655 16.4704 25.5035 16.7794L22.6715 18.1014" stroke="#4546F7" stroke-width="2" stroke-linejoin="round"/>
</svg>
